<?xml version="1.0" standalone="no"?>
<!DOCTYPE svg PUBLIC "-//W3C//DTD SVG 20010904//EN"
 "http://www.w3.org/TR/2001/REC-SVG-20010904/DTD/svg10.dtd">
<svg version="1.0" xmlns="http://www.w3.org/2000/svg"
 width="107.000000pt" height="107.000000pt" viewBox="0 0 107.000000 107.000000"
 preserveAspectRatio="xMidYMid meet">
<metadata>
Created by potrace 1.11, written by Peter Selinger 2001-2013
</metadata>
<g transform="translate(0.000000,107.000000) scale(0.100000,-0.100000)"
fill="#000000" stroke="none">
<path d="M364 1005 c-21 -8 -44 -34 -69 -74 l-37 -62 7 -89 c6 -72 4 -94 -9
-117 -19 -33 -56 -129 -56 -144 0 -6 5 -7 11 -4 7 5 8 -6 4 -35 -3 -23 -2 -47
3 -53 13 -17 26 -67 27 -101 0 -20 9 -35 28 -50 25 -18 41 -21 127 -19 88 2
105 5 159 33 74 37 151 108 151 139 0 12 7 24 15 27 8 4 15 11 15 18 0 7 18
10 52 8 64 -3 147 18 162 40 7 11 6 28 -3 56 -13 39 -13 40 19 70 30 29 33 54
7 51 -24 -3 -37 1 -37 12 0 5 6 7 13 3 8 -5 8 -3 -2 9 -7 9 -17 15 -21 12 -4
-2 -15 4 -24 14 -31 34 -137 75 -191 75 -69 -1 -127 -19 -148 -46 -10 -13 -43
-50 -75 -83 -31 -34 -66 -72 -77 -86 -11 -14 -33 -34 -50 -45 l-30 -19 23 35
c12 19 34 60 49 90 15 30 44 82 65 114 21 33 38 68 38 80 0 21 -47 96 -61 96
-4 0 -11 9 -14 20 -10 31 -36 40 -71 25z m72 -76 c19 -12 33 -24 30 -27 -10
-9 -76 49 -75 66 1 16 2 16 6 0 2 -9 20 -27 39 -39z m-143 -76 c3 -5 -1 -14
-9 -21 -12 -11 -14 -9 -14 8 0 20 14 27 23 13z m415 -120 c-10 -2 -26 -2 -35
0 -10 3 -2 5 17 5 19 0 27 -2 18 -5z"/>
<path d="M440 991 c0 -10 25 -21 48 -21 15 1 14 3 -2 15 -22 17 -46 20 -46 6z"/>
<path d="M519 913 c38 -46 38 -56 3 -102 -75 -98 -75 -123 0 -37 50 57 64 63
170 68 27 2 46 7 44 13 -3 10 -15 10 -81 0 -56 -8 -105 22 -105 65 0 27 -3 30
-31 30 l-30 0 30 -37z"/>
<path d="M566 923 c-4 -9 0 -23 9 -32 13 -14 15 -12 15 17 0 34 -14 43 -24 15z"/>
<path d="M431 679 c-7 -12 -10 -23 -8 -26 3 -3 11 5 17 17 15 28 8 35 -9 9z"/>
<path d="M1021 533 c-1 -17 -50 -61 -86 -79 -27 -14 -28 -14 -11 1 11 8 24 15
30 15 5 0 7 2 4 5 -10 10 -142 -45 -168 -69 -14 -13 -45 -33 -71 -43 -25 -11
-61 -33 -80 -49 -45 -38 -95 -61 -155 -69 -27 -4 -83 -16 -124 -26 -85 -21
-140 -24 -140 -8 0 7 -9 9 -22 6 -28 -8 -75 13 -115 51 -38 34 -39 31 -21 -67
14 -79 18 -86 80 -117 l48 -24 149 25 c188 32 202 37 259 78 26 19 67 45 92
57 25 13 63 38 84 56 21 18 71 45 110 60 38 15 80 37 92 49 23 23 59 128 50
148 -3 9 -5 9 -5 0z"/>
<path d="M98 375 c-25 -25 -34 -41 -31 -55 8 -31 58 -61 105 -63 l43 -2 0 57
c0 47 -4 59 -25 77 -35 29 -50 26 -92 -14z"/>
</g>
</svg>
